<svg width="850" height="351" viewBox="0 0 850 351" fill="none" xmlns="http://www.w3.org/2000/svg">
<path d="M850 0H0V350H850V0Z" fill="#B91327"/>
<path d="M0 182.583L17.7556 195.3C35.6056 208.075 71.1167 233.508 106.533 230.241C141.95 226.916 177.272 194.833 212.689 194.95C248.106 195.008 283.617 227.325 319.033 238.175C354.45 249.083 389.772 238.583 425.189 227.033C460.606 215.425 496.117 202.825 531.533 198.45C566.95 194.075 602.272 197.925 637.689 208.541C673.106 219.158 708.617 236.425 744.033 239.575C779.45 242.666 814.772 231.583 832.339 226.041L850 220.5V350.583H832.339C814.772 350.583 779.45 350.583 744.033 350.583C708.617 350.583 673.106 350.583 637.689 350.583C602.272 350.583 566.95 350.583 531.533 350.583C496.117 350.583 460.606 350.583 425.189 350.583C389.772 350.583 354.45 350.583 319.033 350.583C283.617 350.583 248.106 350.583 212.689 350.583C177.272 350.583 141.95 350.583 106.533 350.583C71.1167 350.583 35.6056 350.583 17.7556 350.583H0V182.583Z" fill="#A61123"/>
<path d="M0 231.584L17.7556 232.867C35.6056 234.092 71.1167 236.659 106.533 244.125C141.95 251.592 177.272 264.075 212.689 261.8C248.106 259.583 283.617 242.667 319.033 239.05C354.45 235.492 389.772 245.175 425.189 252.117C460.606 259 496.117 263.083 531.533 258.125C566.95 253.167 602.272 239.167 637.689 233.159C673.106 227.092 708.617 229.075 744.033 232.867C779.45 236.659 814.772 242.259 832.339 245.117L850 247.917V350.583H832.339C814.772 350.583 779.45 350.583 744.033 350.583C708.617 350.583 673.106 350.583 637.689 350.583C602.272 350.583 566.95 350.583 531.533 350.583C496.117 350.583 460.606 350.583 425.189 350.583C389.772 350.583 354.45 350.583 319.033 350.583C283.617 350.583 248.106 350.583 212.689 350.583C177.272 350.583 141.95 350.583 106.533 350.583C71.1167 350.583 35.6056 350.583 17.7556 350.583H0V231.584Z" fill="#94101F"/>
<path d="M0 267.167L17.7556 267.342C35.6056 267.575 71.1167 267.925 106.533 263.492C141.95 259 177.272 249.667 212.689 250.25C248.106 250.833 283.617 261.333 319.033 269.325C354.45 277.258 389.772 282.742 425.189 280C460.606 277.258 496.117 266.408 531.533 265.008C566.95 263.667 602.272 271.833 637.689 267.575C673.106 263.258 708.617 246.575 744.033 248.792C779.45 251.008 814.772 272.242 832.339 282.8L850 293.417V350.583H832.339C814.772 350.583 779.45 350.583 744.033 350.583C708.617 350.583 673.106 350.583 637.689 350.583C602.272 350.583 566.95 350.583 531.533 350.583C496.117 350.583 460.606 350.583 425.189 350.583C389.772 350.583 354.45 350.583 319.033 350.583C283.617 350.583 248.106 350.583 212.689 350.583C177.272 350.583 141.95 350.583 106.533 350.583C71.1167 350.583 35.6056 350.583 17.7556 350.583H0V267.167Z" fill="#8B2120"/>
<path d="M0 262.5L17.7556 269.675C35.6056 276.908 71.1167 291.258 106.533 291.55C141.95 291.842 177.272 278.075 212.689 275.508C248.106 273 283.617 281.75 319.033 288.925C354.45 296.158 389.772 301.758 425.189 303.8C460.606 305.842 496.117 304.325 531.533 304.617C566.95 304.908 602.272 307.008 637.689 299.133C673.106 291.258 708.617 273.408 744.033 266.875C779.45 260.342 814.772 265.242 832.339 267.633L850 270.083V350.583H832.339C814.772 350.583 779.45 350.583 744.033 350.583C708.617 350.583 673.106 350.583 637.689 350.583C602.272 350.583 566.95 350.583 531.533 350.583C496.117 350.583 460.606 350.583 425.189 350.583C389.772 350.583 354.45 350.583 319.033 350.583C283.617 350.583 248.106 350.583 212.689 350.583C177.272 350.583 141.95 350.583 106.533 350.583C71.1167 350.583 35.6056 350.583 17.7556 350.583H0V262.5Z" fill="#6F0C17"/>
<path d="M0 294.583L17.7556 293.825C35.6056 293.008 71.1167 291.492 106.533 290.967C141.95 290.5 177.272 291.083 212.689 296.217C248.106 301.408 283.617 311.092 319.033 314.3C354.45 317.508 389.772 314.242 425.189 313.833C460.606 313.425 496.117 315.992 531.533 313.425C566.95 310.917 602.272 303.333 637.689 303.042C673.106 302.75 708.617 309.75 744.033 311.033C779.45 312.258 814.772 307.825 832.339 305.55L850 303.333V350.583H832.339C814.772 350.583 779.45 350.583 744.033 350.583C708.617 350.583 673.106 350.583 637.689 350.583C602.272 350.583 566.95 350.583 531.533 350.583C496.117 350.583 460.606 350.583 425.189 350.583C389.772 350.583 354.45 350.583 319.033 350.583C283.617 350.583 248.106 350.583 212.689 350.583C177.272 350.583 141.95 350.583 106.533 350.583C71.1167 350.583 35.6056 350.583 17.7556 350.583H0V294.583Z" fill="#5C0A13"/>
</svg>
